<svg role="img" viewBox="0 0 32 32" xmlns="http://www.w3.org/2000/svg" id="Github--Streamline-Simple-Icons" height="32" width="32">
  <desc>
    Github Streamline Icon: https://streamlinehq.com
  </desc>
  <title>GitHub</title>
  <path d="M16 0.39599999999999996c-8.84 0 -16 7.164 -16 16 0 7.070666666666666 4.584 13.066666666666666 10.94 15.18 0.7999999999999999 0.15066666666666667 1.0933333333333333 -0.344 1.0933333333333333 -0.7693333333333332 0 -0.37999999999999995 -0.013333333333333332 -1.3866666666666667 -0.019999999999999997 -2.7199999999999998 -4.450666666666667 0.9653333333333333 -5.389333333333333 -2.1466666666666665 -5.389333333333333 -2.1466666666666665C5.895999999999999 24.093333333333334 4.843999999999999 23.599999999999998 4.843999999999999 23.599999999999998c-1.4493333333333331 -0.992 0.112 -0.972 0.112 -0.972 1.6066666666666667 0.112 2.4506666666666668 1.648 2.4506666666666668 1.648 1.4266666666666667 2.4466666666666663 3.7453333333333334 1.7399999999999998 4.66 1.3306666666666667 0.144 -1.0346666666666666 0.5559999999999999 -1.7399999999999998 1.0133333333333332 -2.1399999999999997 -3.5533333333333332 -0.39999999999999997 -7.288 -1.776 -7.288 -7.906666666666666 0 -1.7466666666666666 0.62 -3.173333333333333 1.6466666666666667 -4.293333333333333 -0.18 -0.40399999999999997 -0.72 -2.0306666666666664 0.13999999999999999 -4.234666666666667 0 0 1.3399999999999999 -0.42933333333333334 4.3999999999999995 1.64 1.2799999999999998 -0.356 2.6399999999999997 -0.532 4 -0.54 1.3599999999999999 0.008 2.7199999999999998 0.184 4 0.54 3.0399999999999996 -2.0693333333333332 4.38 -1.64 4.38 -1.64 0.86 2.2039999999999997 0.31999999999999995 3.8306666666666667 0.15999999999999998 4.234666666666667 1.02 1.1199999999999999 1.64 2.5466666666666664 1.64 4.293333333333333 0 6.1466666666666665 -3.74 7.5 -7.299999999999999 7.893333333333333 0.5599999999999999 0.48 1.08 1.4613333333333334 1.08 2.96 0 2.1413333333333333 -0.019999999999999997 3.861333333333333 -0.019999999999999997 4.381333333333333 0 0.42 0.27999999999999997 0.9199999999999999 1.0999999999999999 0.7599999999999999C27.42 29.455999999999996 32 23.455999999999996 32 16.396c0 -8.835999999999999 -7.164 -16 -16 -16" fill="#ffffff" stroke-width="1.3333"></path>
</svg>