<svg role="img" viewBox="0 0 32 32" xmlns="http://www.w3.org/2000/svg" id="Zenn--Streamline-Simple-Icons" height="32" width="32">
  <desc>
    Zenn Streamline Icon: https://streamlinehq.com
  </desc>
  <title>Zenn</title>
  <path d="M0.352 31.694666666666667h6.645333333333333c0.352 0 0.6639999999999999 -0.19599999999999998 0.86 -0.46933333333333327L26.152 1.1653333333333333c0.23466666666666663 -0.3906666666666666 -0.03866666666666667 -0.86 -0.508 -0.86h-6.293333333333333c-0.3133333333333333 0 -0.5866666666666667 0.156 -0.7426666666666667 0.43066666666666664L0.039999999999999994 31.148c-0.11733333333333332 0.23466666666666663 0.03866666666666667 0.5466666666666666 0.312 0.5466666666666666zm22.908 -0.46933333333333327 8.638666666666666 -13.877333333333333c0.2733333333333333 -0.43066666666666664 -0.03866666666666667 -0.9773333333333333 -0.5466666666666666 -0.9773333333333333h-6.254666666666666c-0.23466666666666663 0 -0.46933333333333327 0.11733333333333332 -0.5866666666666667 0.3133333333333333l-8.873333333333333 14.190666666666667c-0.23466666666666663 0.352 0.03866666666666667 0.8213333333333332 0.46933333333333327 0.8213333333333332h6.372c0.312 -0.0013333333333333333 0.624 -0.15733333333333333 0.7813333333333332 -0.4706666666666666z" fill="#ffffff" stroke-width="1.3333"></path>
</svg>